<?xml version="1.0" encoding="UTF-8"?>
<svg id="Layer_1" xmlns="http://www.w3.org/2000/svg" version="1.1" viewBox="0 0 1080 1080">
  <!-- Generator: Adobe Illustrator 29.8.1, SVG Export Plug-In . SVG Version: 2.1.1 Build 2)  -->
  <defs>
    <style>
      .st0 {
        fill: #011b88;
      }

      .st1, .st2, .st3 {
        fill: #fff;
      }

      .st2 {
        font-family: GeneralSans-Light, 'General Sans';
        font-size: 42.14px;
        font-weight: 300;
      }

      .st3 {
        font-family: AGRESSIVE, AGRESSIVE;
        font-size: 66.25px;
      }
    </style>
  </defs>
  <rect class="st0" x="-1690.85" y="3.84" width="3611.87" height="3611.87"/>
  <g>
    <path class="st1" d="M252.16,558.34c-17.53-8.47-38.49,1.78-39.19,21.9-39.31,5.02-70.54-29.93-59.76-68.69,9.09-32.68,46.44-46.78,76.72-33.81,31.6,13.54,40.73,52.6,22.23,80.6ZM203.08,498.58c-37.55,4.13-30.24,63.91,9.49,56.19,33.55-6.52,27.25-60.23-9.49-56.19Z"/>
    <path class="st1" d="M239.81,565.04c18.68.41,21.09,27.22,4.8,31.57-26.07,6.95-30.05-32.12-4.8-31.57Z"/>
    <polygon class="st1" points="310.81 472.96 310.81 514.14 351.99 514.14 351.99 472.96 393.64 472.96 393.64 597.44 351.99 597.44 351.99 555.79 310.81 555.79 310.81 597.44 269.16 597.44 269.16 555.79 310.35 555.79 310.35 514.61 269.16 514.61 269.16 472.96 310.81 472.96"/>
    <path class="st1" d="M399.15,523.98l29.86-16.95c4.24-1.1,8.32,1.8,8.7,6.11.67,7.46-.3,15.4-.35,22.85-.07,9.74.87,21.49.03,30.93-.43,4.83-5.26,7.14-9.56,5.36l-28.57-16.8-.11-31.49Z"/>
  </g>
  <text class="st2" transform="translate(151.06 642.41)"><tspan x="0" y="0">Every shot has a story, every goal has a meaning</tspan></text>
  <text class="st3" transform="translate(458.36 521.83)"><tspan x="0" y="0">Elhachimi </tspan></text>
  <text class="st3" transform="translate(461.27 592.26)"><tspan x="0" y="0">Visionlab</tspan></text>
  <polygon class="st1" points="311.53 472.84 311.53 514.1 352.78 514.1 352.78 472.84 394.51 472.84 394.51 597.55 352.78 597.55 352.78 555.82 311.53 555.82 311.53 597.55 269.8 597.55 269.8 555.82 311.06 555.82 311.06 514.57 269.8 514.57 269.8 472.84 311.53 472.84"/>
</svg>