<?xml version="1.0" encoding="UTF-8"?>
<svg id="Layer_1" xmlns="http://www.w3.org/2000/svg" version="1.1" viewBox="0 0 1080 1080">
  <!-- Generator: Adobe Illustrator 29.8.1, SVG Export Plug-In . SVG Version: 2.1.1 Build 2)  -->
  <defs>
    <style>
      .st0 {
        fill: #011b88;
      }

      .st1 {
        fill: #fff;
      }
    </style>
  </defs>
  <rect class="st0" x="-550.85" y="3.84" width="3611.87" height="3611.87"/>
  <path class="st1" d="M436.58,596.54c-42.82-20.69-94.01,4.35-95.72,53.5-96.03,12.27-172.31-73.1-145.96-167.79,22.21-79.82,113.43-114.27,187.38-82.58,77.18,33.08,99.48,128.47,54.3,196.87ZM316.69,450.55c-91.71,10.09-73.86,156.1,23.18,137.24,81.95-15.92,66.56-147.12-23.18-137.24Z"/>
  <path class="st1" d="M406.41,612.9c45.62,1.01,51.51,66.49,11.72,77.1-63.67,16.98-73.4-78.46-11.72-77.1Z"/>
  <polygon class="st1" points="579.84 387.98 579.84 488.56 680.42 488.56 680.42 387.98 782.15 387.98 782.15 692.02 680.42 692.02 680.42 590.29 579.84 590.29 579.84 692.02 478.11 692.02 478.11 590.29 578.7 590.29 578.7 489.71 478.11 489.71 478.11 387.98 579.84 387.98"/>
  <path class="st1" d="M795.61,512.61l72.93-41.41c10.37-2.68,20.31,4.4,21.25,14.92,1.63,18.22-.73,37.62-.85,55.82-.16,23.79,2.12,52.48.07,75.55-1.05,11.79-12.85,17.43-23.36,13.09l-69.77-41.04-.27-76.92Z"/>
</svg>