<?xml version="1.0" encoding="UTF-8"?>
<svg id="Layer_1" data-name="Layer 1" xmlns="http://www.w3.org/2000/svg" viewBox="0 0 1080 1080">
  <defs>
    <style>
      .cls-1 {
        stroke-width: 0px;
      }

      .cls-1, .cls-2 {
        fill: #fff;
      }

      .cls-2 {
        font-family: AGRESSIVE, AGRESSIVE;
        font-size: 66.25px;
      }
    </style>
  </defs>
  <g>
    <path class="cls-1" d="m255.7,540.72c-17.53-8.47-38.49,1.78-39.19,21.9-39.31,5.02-70.54-29.93-59.76-68.69,9.09-32.68,46.44-46.78,76.72-33.81,31.6,13.54,40.73,52.6,22.23,80.6Zm-49.08-59.77c-37.55,4.13-30.24,63.91,9.49,56.19,33.55-6.52,27.25-60.23-9.49-56.19Z"/>
    <path class="cls-1" d="m243.35,547.41c18.68.41,21.09,27.22,4.8,31.57-26.07,6.95-30.05-32.12-4.8-31.57Z"/>
    <polygon class="cls-1" points="314.35 455.33 314.35 496.51 355.53 496.51 355.53 455.33 397.18 455.33 397.18 579.81 355.53 579.81 355.53 538.16 314.35 538.16 314.35 579.81 272.7 579.81 272.7 538.16 313.89 538.16 313.89 496.98 272.7 496.98 272.7 455.33 314.35 455.33"/>
    <path class="cls-1" d="m402.69,506.36l29.86-16.95c4.24-1.1,8.32,1.8,8.7,6.11.67,7.46-.3,15.4-.35,22.85-.07,9.74.87,21.49.03,30.93-.43,4.83-5.26,7.14-9.56,5.36l-28.57-16.8-.11-31.49Z"/>
  </g>
  <text class="cls-2" transform="translate(461.9 504.2)"><tspan x="0" y="0">Elhachimi </tspan></text>
  <text class="cls-2" transform="translate(464.81 574.63)"><tspan x="0" y="0">Visionlab</tspan></text>
  <polygon class="cls-1" points="315.07 455.22 315.07 496.47 356.32 496.47 356.32 455.22 398.05 455.22 398.05 579.92 356.32 579.92 356.32 538.2 315.07 538.2 315.07 579.92 273.34 579.92 273.34 538.2 314.6 538.2 314.6 496.94 273.34 496.94 273.34 455.22 315.07 455.22"/>
</svg>