<?xml version="1.0" encoding="UTF-8"?>
<svg id="Layer_1" data-name="Layer 1" xmlns="http://www.w3.org/2000/svg" viewBox="0 0 1080 1080">
  <defs>
    <style>
      .cls-1 {
        stroke-width: 0px;
      }

      .cls-1, .cls-2 {
        fill: #fff;
      }

      .cls-2 {
        font-family: GeneralSans-Light, 'General Sans';
        font-size: 37.61px;
        font-weight: 300;
      }
    </style>
  </defs>
  <g>
    <path class="cls-1" d="m436.58,614.06c-42.82-20.69-94.01,4.35-95.72,53.5-96.03,12.27-172.31-73.1-145.96-167.79,22.21-79.82,113.43-114.27,187.38-82.58,77.18,33.08,99.48,128.47,54.3,196.87Zm-119.89-145.99c-91.71,10.09-73.86,156.1,23.18,137.24,81.95-15.92,66.56-147.12-23.18-137.24Z"/>
    <path class="cls-1" d="m406.41,630.42c45.62,1.01,51.51,66.49,11.72,77.1-63.67,16.98-73.4-78.46-11.72-77.1Z"/>
    <polygon class="cls-1" points="579.84 405.5 579.84 506.08 680.42 506.08 680.42 405.5 782.15 405.5 782.15 709.54 680.42 709.54 680.42 607.81 579.84 607.81 579.84 709.54 478.11 709.54 478.11 607.81 578.7 607.81 578.7 507.23 478.11 507.23 478.11 405.5 579.84 405.5"/>
    <path class="cls-1" d="m795.61,530.13l72.93-41.41c10.37-2.68,20.31,4.4,21.25,14.92,1.63,18.22-.73,37.62-.85,55.82-.16,23.79,2.12,52.48.07,75.55-1.05,11.79-12.85,17.43-23.36,13.09l-69.77-41.04-.27-76.92Z"/>
  </g>
  <text class="cls-2" transform="translate(189.64 770.47)"><tspan x="0" y="0">Every shot has a story, every goal has a meaning</tspan></text>
</svg>